<svg width="61" height="60" viewBox="0 0 61 60" fill="none" xmlns="http://www.w3.org/2000/svg">
<g id="Instagram">
<path id="Vector" d="M42.1416 5.625H19.6193C16.136 5.62872 12.7964 7.01273 10.3334 9.47334C7.87031 11.9339 6.48493 15.2702 6.4812 18.75V41.25C6.48493 44.7298 7.87031 48.0661 10.3334 50.5267C12.7964 52.9873 16.136 54.3713 19.6193 54.375H42.1416C45.6249 54.3713 48.9645 52.9873 51.4275 50.5267C53.8906 48.0661 55.276 44.7298 55.2797 41.25V18.75C55.276 15.2702 53.8906 11.9339 51.4275 9.47334C48.9645 7.01273 45.6249 5.62872 42.1416 5.625ZM30.8805 41.25C28.6532 41.25 26.476 40.5902 24.6241 39.354C22.7722 38.1179 21.3288 36.3609 20.4765 34.3052C19.6241 32.2495 19.4011 29.9875 19.8356 27.8052C20.2702 25.6229 21.3427 23.6184 22.9176 22.045C24.4925 20.4717 26.499 19.4003 28.6835 18.9662C30.868 18.5321 33.1322 18.7549 35.1899 19.6064C37.2476 20.4578 39.0064 21.8998 40.2438 23.7498C41.4812 25.5999 42.1416 27.775 42.1416 30C42.1385 32.9827 40.9511 35.8424 38.8399 37.9515C36.7287 40.0606 33.8662 41.2469 30.8805 41.25ZM44.9569 18.75C44.4001 18.75 43.8558 18.5851 43.3929 18.276C42.9299 17.967 42.569 17.5277 42.356 17.0138C42.1429 16.4999 42.0871 15.9344 42.1957 15.3888C42.3044 14.8432 42.5725 14.3421 42.9662 13.9488C43.36 13.5554 43.8616 13.2876 44.4077 13.179C44.9538 13.0705 45.5199 13.1262 46.0343 13.3391C46.5487 13.552 46.9884 13.9124 47.2978 14.375C47.6071 14.8375 47.7722 15.3812 47.7722 15.9375C47.7722 16.6834 47.4756 17.3988 46.9477 17.9262C46.4197 18.4537 45.7036 18.75 44.9569 18.75ZM38.3879 30C38.3879 31.4834 37.9476 32.9334 37.1227 34.1668C36.2978 35.4001 35.1252 36.3614 33.7534 36.9291C32.3816 37.4968 30.8721 37.6453 29.4158 37.3559C27.9595 37.0665 26.6218 36.3522 25.5719 35.3033C24.5219 34.2544 23.8069 32.918 23.5172 31.4632C23.2276 30.0083 23.3762 28.5003 23.9445 27.1299C24.5127 25.7594 25.4749 24.5881 26.7095 23.764C27.9441 22.9399 29.3956 22.5 30.8805 22.5C32.8716 22.5 34.7811 23.2902 36.189 24.6967C37.597 26.1032 38.3879 28.0109 38.3879 30Z" fill="#232A44"/>
</g>
</svg>
