<svg width="61" height="60" viewBox="0 0 61 60" fill="none" xmlns="http://www.w3.org/2000/svg">
<g id="Tiktok">
<path id="Vector" d="M48.4411 13.9055C48.0611 13.7093 47.6911 13.4942 47.3326 13.2609C46.2902 12.5723 45.3343 11.761 44.4856 10.8445C42.3624 8.41758 41.5695 5.95547 41.2774 4.23164H41.2891C41.0451 2.80078 41.146 1.875 41.1612 1.875H31.4907V39.232C31.4907 39.7336 31.4907 40.2293 31.4696 40.7191C31.4696 40.7801 31.4637 40.8363 31.4602 40.902C31.4602 40.9289 31.4602 40.957 31.4543 40.9852V41.0063C31.3524 42.3466 30.9223 43.6414 30.2019 44.7768C29.4815 45.9121 28.4928 46.8532 27.3229 47.5172C26.1036 48.2102 24.7245 48.5737 23.3216 48.5719C18.816 48.5719 15.1643 44.9016 15.1643 40.3688C15.1643 35.8359 18.816 32.1656 23.3216 32.1656C24.1745 32.1648 25.0222 32.2989 25.8331 32.5629L25.8448 22.7262C23.3831 22.4085 20.8821 22.6039 18.4997 23.3002C16.1173 23.9965 13.9052 25.1784 12.003 26.7715C10.3362 28.2183 8.93487 29.9446 7.86213 31.8727C7.45391 32.5758 5.91371 35.4012 5.72719 39.9867C5.60989 42.5895 6.39231 45.2859 6.76533 46.4004V46.4238C6.99994 47.0801 7.90905 49.3195 9.3906 51.2074C10.5852 52.7218 11.9967 54.0521 13.5795 55.1555V55.132L13.603 55.1555C18.2846 58.3336 23.4753 58.125 23.4753 58.125C24.3739 58.0887 27.3839 58.125 30.8021 56.5066C34.5934 54.7125 36.7518 52.0395 36.7518 52.0395C38.1306 50.4422 39.227 48.6221 39.9941 46.657C40.8692 44.359 41.1612 41.6027 41.1612 40.5012V20.6824C41.2785 20.7527 42.841 21.7852 42.841 21.7852C42.841 21.7852 45.0921 23.2266 48.6042 24.1652C51.1239 24.8332 54.5187 24.9738 54.5187 24.9738V15.3832C53.3292 15.5121 50.9139 15.1371 48.4411 13.9055Z" fill="#232A44"/>
</g>
</svg>
