<svg width="61" height="60" viewBox="0 0 61 60" fill="none" xmlns="http://www.w3.org/2000/svg">
<g id="Viber">
<path id="Vector" fill-rule="evenodd" clip-rule="evenodd" d="M42.6719 6.56999C34.7987 4.81179 26.6339 4.81179 18.7607 6.56999L17.9123 6.75749C15.6971 7.25082 13.6623 8.34868 12.0346 9.92884C10.407 11.509 9.25021 13.5095 8.69317 15.7075C6.70091 23.5642 6.70091 31.7932 8.69317 39.65C9.22446 41.7462 10.3017 43.6646 11.8155 45.2102C13.3292 46.7558 15.2255 47.8736 17.3117 48.45L18.4754 55.39C18.5125 55.6104 18.6081 55.8168 18.7523 55.9877C18.8964 56.1586 19.0837 56.2878 19.2948 56.3618C19.5058 56.4359 19.7329 56.452 19.9523 56.4086C20.1718 56.3652 20.3756 56.2638 20.5424 56.115L27.3767 50.0075C32.507 50.3169 37.6554 49.9071 42.6719 48.79L43.5228 48.6025C45.7381 48.1092 47.7728 47.0113 49.4005 45.4311C51.0282 43.851 52.1849 41.8505 52.742 39.6525C54.7342 31.7957 54.7342 23.5667 52.742 15.71C52.1847 13.5116 51.0276 11.511 49.3994 9.93078C47.7713 8.35059 45.736 7.25291 43.5203 6.75999L42.6719 6.56999ZM20.8728 15.505C20.4077 15.437 19.9333 15.5305 19.5289 15.77H19.4939C18.5555 16.32 17.7096 17.0125 16.9889 17.8275C16.3883 18.52 16.063 19.22 15.9779 19.895C15.9279 20.295 15.9629 20.7 16.0805 21.0825L16.1256 21.1075C16.8012 23.09 17.6821 24.9975 18.7582 26.7925C20.1463 29.3133 21.8537 31.645 23.8382 33.73L23.8983 33.815L23.9934 33.885L24.0509 33.9525L24.121 34.0125C26.2155 36.0008 28.555 37.7146 31.0829 39.1125C33.9733 40.685 35.7275 41.4275 36.7811 41.7375V41.7525C37.0889 41.8475 37.3692 41.89 37.652 41.89C38.5497 41.8257 39.3995 41.461 40.0644 40.855C40.8777 40.135 41.5658 39.2875 42.1014 38.345V38.3275C42.6044 37.3775 42.4342 36.4825 41.7085 35.875C40.252 34.601 38.6756 33.4708 37.0013 32.5C35.8802 31.8925 34.7416 32.26 34.2811 32.875L33.2976 34.115C32.7921 34.73 31.8762 34.645 31.8762 34.645L31.8512 34.66C25.0169 32.9175 23.1926 26.005 23.1926 26.005C23.1926 26.005 23.1075 25.065 23.7406 24.585L24.9718 23.595C25.5624 23.115 25.9728 21.98 25.3397 20.86C24.3702 19.1886 23.2413 17.6146 21.9689 16.16C21.6905 15.8184 21.3007 15.5857 20.8678 15.5025M32.4193 12.5C32.0874 12.5 31.7691 12.6317 31.5345 12.8661C31.2998 13.1005 31.168 13.4185 31.168 13.75C31.168 14.0815 31.2998 14.3995 31.5345 14.6339C31.7691 14.8683 32.0874 15 32.4193 15C35.5849 15 38.2125 16.0325 40.2921 18.0125C41.3606 19.095 42.194 20.3775 42.7395 21.7825C43.2876 23.19 43.5378 24.6925 43.4727 26.1975C43.4658 26.3616 43.4914 26.5255 43.5479 26.6798C43.6044 26.8341 43.6908 26.9758 43.8021 27.0968C44.0269 27.341 44.3396 27.4861 44.6714 27.5C45.0033 27.5139 45.3271 27.3956 45.5716 27.171C45.8161 26.9464 45.9613 26.634 45.9752 26.3025C46.0499 24.4514 45.7424 22.6047 45.0718 20.8775C44.3982 19.1415 43.3724 17.5634 42.0588 16.2425L42.0338 16.2175C39.4537 13.755 36.188 12.5 32.4193 12.5ZM32.3342 16.61C32.0023 16.61 31.6841 16.7417 31.4494 16.9761C31.2148 17.2105 31.0829 17.5285 31.0829 17.86C31.0829 18.1915 31.2148 18.5095 31.4494 18.7439C31.6841 18.9783 32.0023 19.11 32.3342 19.11H32.3767C34.659 19.2725 36.3206 20.0325 37.4843 21.28C38.678 22.565 39.2961 24.1625 39.2485 26.1375C39.2409 26.469 39.3654 26.79 39.5947 27.0298C39.8239 27.2696 40.1392 27.4086 40.471 27.4162C40.8029 27.4239 41.1241 27.2995 41.3642 27.0705C41.6043 26.8414 41.7434 26.5265 41.751 26.195C41.8111 23.6025 40.9753 21.365 39.3186 19.58V19.575C37.6244 17.76 35.2996 16.8 32.5018 16.6125L32.4593 16.6075L32.3342 16.61ZM32.2866 20.7975C32.1192 20.7827 31.9505 20.8018 31.7906 20.8536C31.6307 20.9055 31.4829 20.9889 31.356 21.0991C31.2291 21.2092 31.1257 21.3438 31.052 21.4947C30.9783 21.6457 30.9358 21.8099 30.9271 21.9776C30.9183 22.1453 30.9435 22.3131 31.0011 22.4708C31.0587 22.6286 31.1475 22.7732 31.2622 22.8959C31.377 23.0186 31.5153 23.117 31.669 23.1851C31.8226 23.2533 31.9884 23.2898 32.1565 23.2925C33.2025 23.3475 33.8707 23.6625 34.2911 24.085C34.714 24.51 35.0294 25.1925 35.0869 26.26C35.09 26.4277 35.1269 26.5931 35.1954 26.7463C35.2639 26.8995 35.3625 27.0374 35.4854 27.1517C35.6084 27.266 35.7531 27.3545 35.9109 27.4117C36.0688 27.469 36.2366 27.4939 36.4043 27.485C36.572 27.4761 36.7362 27.4336 36.8871 27.3599C37.038 27.2863 37.1725 27.1831 37.2826 27.0564C37.3928 26.9297 37.4762 26.7822 37.5281 26.6226C37.5799 26.463 37.5991 26.2946 37.5844 26.1275C37.5043 24.6275 37.0338 23.3025 36.0704 22.3275C35.1019 21.3525 33.7831 20.8775 32.2866 20.7975Z" fill="#232A44"/>
</g>
</svg>
