<svg width="61" height="60" viewBox="0 0 61 60" fill="none" xmlns="http://www.w3.org/2000/svg">
<g id="Youtube">
<path id="Vector" d="M59.5647 15.465C59.2245 14.1886 58.555 13.0238 57.6232 12.0867C56.6914 11.1497 55.5298 10.4733 54.2544 10.125C49.5722 8.86249 30.7911 8.86249 30.7911 8.86249C30.7911 8.86249 12.0099 8.86249 7.32525 10.125C6.05035 10.4736 4.88928 11.1502 3.95792 12.0873C3.02656 13.0243 2.35749 14.1889 2.01748 15.465C0.76123 20.175 0.76123 30 0.76123 30C0.76123 30 0.76123 39.825 2.01748 44.535C2.3577 45.8113 3.02715 46.9762 3.95898 47.9132C4.8908 48.8503 6.05239 49.5267 7.32776 49.875C12.0099 51.1375 30.7911 51.1375 30.7911 51.1375C30.7911 51.1375 49.5723 51.1375 54.2569 49.875C55.5323 49.5267 56.6939 48.8503 57.6257 47.9132C58.5575 46.9762 59.227 45.8113 59.5672 44.535C60.8209 39.825 60.8209 30 60.8209 30C60.8209 30 60.8209 20.175 59.5647 15.465ZM24.6475 38.92V21.08L40.3456 30L24.6475 38.92Z" fill="#232A44"/>
</g>
</svg>
